<?xml version="1.0" standalone="no"?>
<!DOCTYPE svg PUBLIC "-//W3C//DTD SVG 20010904//EN"
 "http://www.w3.org/TR/2001/REC-SVG-20010904/DTD/svg10.dtd">
<svg version="1.0" xmlns="http://www.w3.org/2000/svg"
  viewBox="0 0 512.000000 512.000000"
 preserveAspectRatio="xMidYMid meet">
  <defs>
    <radialGradient id="logoGradient" cx="50%" cy="50%" r="75%">
      <stop offset="0%" stop-color="#3d9be9"/>
      <stop offset="100%" stop-color="#1d7ecf"/>
    </radialGradient>
  </defs>
<g transform="translate(0.000000,512.000000) scale(0.100000,-0.100000)"
fill="url(#logoGradient)" stroke="none">
<path d="M1325 4406 l-1220 -702 0 -1413 0 -1412 465 -264 465 -264 3 1404 2
1405 38 24 c84 55 1486 856 1492 854 28 -11 590 -324 590 -329 0 -3 -216 -135
-479 -294 -264 -159 -479 -291 -478 -292 2 -1 203 -115 447 -253 431 -244 445
-251 470 -237 14 8 444 252 955 542 512 290 931 529 933 530 3 2 66 -34 -1325
764 -607 348 -1111 634 -1120 636 -10 2 -560 -308 -1238 -699z"/>
<path d="M4545 2672 l-460 -248 -3 -838 c-1 -461 -6 -836 -11 -834 -4 2 -343
190 -752 417 -409 228 -751 415 -759 415 -9 1 -215 -107 -458 -239 l-442 -240
0 -549 0 -548 23 14 c12 8 213 133 446 277 l425 263 40 -23 c23 -12 140 -83
261 -157 121 -74 309 -189 417 -255 l197 -119 348 198 c191 108 535 303 763
431 228 129 418 238 423 242 4 4 6 465 5 1024 l-3 1016 -460 -247z"/>
</g>
</svg>