<svg xmlns="http://www.w3.org/2000/svg" id="Layer_2" data-name="Layer 2" viewBox="0 0 1976 318.75"><defs><style>      .cls-1 {        fill: #f9c316;      }    </style></defs><g id="Objects"><polygon class="cls-1" points="167.58 0 219.36 104.93 335.16 121.75 251.37 203.43 271.15 318.75 167.58 264.3 64.01 318.75 83.79 203.43 0 121.75 115.79 104.93 167.58 0"></polygon><polygon class="cls-1" points="577.79 0 629.57 104.93 745.37 121.75 661.58 203.43 681.36 318.75 577.79 264.3 474.22 318.75 494 203.43 410.21 121.75 526 104.93 577.79 0"></polygon><polygon class="cls-1" points="988 0 1039.78 104.93 1155.58 121.75 1071.79 203.43 1091.57 318.75 988 264.3 884.43 318.75 904.21 203.43 820.42 121.75 936.22 104.93 988 0"></polygon><polygon class="cls-1" points="1398.21 0 1450 104.93 1565.79 121.75 1482 203.43 1501.78 318.75 1398.21 264.3 1294.64 318.75 1314.42 203.43 1230.63 121.75 1346.43 104.93 1398.21 0"></polygon><polygon class="cls-1" points="1808.42 0 1860.21 104.93 1976 121.75 1892.21 203.43 1911.99 318.75 1808.42 264.3 1704.85 318.75 1724.63 203.43 1640.84 121.75 1756.64 104.93 1808.42 0"></polygon></g></svg>