<svg width="189" height="40" viewBox="0 0 189 40" fill="none" xmlns="http://www.w3.org/2000/svg">
<path fill-rule="evenodd" clip-rule="evenodd" d="M29.2265 5.40541L37.8378 10.0607V17.8355L30.1491 22.1785V13.1929L20 19.3331L9.85088 13.1929V34.7584L2.16216 30.0202V10.0607L11.0811 5.40541L20 10.4303L29.2265 5.40541ZM37.8378 21.28V30.0202L20 40L12.9264 36.1062V27.2704L20 31.4637L37.8378 21.28Z" fill="#333"/>
<path d="M45.75 28.5V28.75H46H48.1186H48.3686V28.5V16.0352L54.7858 25.4228L54.9922 25.7247L55.1985 25.4228L61.6157 16.0352V28.5V28.75H61.8657H64H64.25V28.5V11.5V11.25H64H62.0384H61.9057L61.8313 11.3599L54.9928 21.4624L48.2005 11.3605L48.1262 11.25H47.993H46H45.75V11.5V28.5Z" fill="#333" stroke="#333" stroke-width="0.5"/>
<path d="M67.7818 28.3781L67.5739 28.75H68H70.3598H70.5067L70.5782 28.6217L72.3477 25.4467H79.6027L81.3888 28.6225L81.4605 28.75H81.6067H84H84.428L84.2178 28.3772L76.8872 15.3772L76.8155 15.25H76.6695H75.2636H75.1169L75.0454 15.3781L67.7818 28.3781ZM73.5999 23.2266L75.982 19.0095L78.3357 23.2266H73.5999Z" fill="#333" stroke="#333" stroke-width="0.5"/>
<path d="M87.75 28.5V28.75H88H90.1348H90.3848V28.5V23.706L92.8994 21.6671L98.414 28.6549L98.4891 28.75H98.6103H101H101.513L101.197 28.3458L94.7847 20.1626L100.297 15.6942L100.845 15.25H100.14H97.3358H97.2478L97.1792 15.3051L90.3848 20.7615V15.5V15.25H90.1348H88H87.75V15.5V28.5Z" fill="#333" stroke="#333" stroke-width="0.5"/>
<path d="M104.75 28.5V28.75H105H118H118.25V28.5V26.6276V26.3776H118H107.329V22.7676H113.874H114.124V22.5176V20.6452V20.3952H113.874H107.329V17.6528H117.426H117.676V17.4028V15.5V15.25H117.426H105H104.75V15.5V28.5Z" fill="#333" stroke="#333" stroke-width="0.5"/>
<path d="M127.23 28.5V28.75H127.48H129.505H129.755V28.5V17.5615H135H135.25V17.3115V15.5V15.25H135H122H121.75V15.5V17.3115V17.5615H122H127.23V28.5Z" fill="#333" stroke="#333" stroke-width="0.5"/>
<path d="M138.75 28.5V28.75H139H153H153.25V28.5V26.5444V26.2944H153H141.485V11.5V11.25H141.235H139H138.75V11.5V28.5Z" fill="#333" stroke="#333" stroke-width="0.5"/>
<path d="M156.775 28.3902L156.599 28.75H157H159.065H159.221L159.29 28.6096L160.832 25.4467H167.125L168.682 28.6104L168.75 28.75H168.906H171H171.402L171.224 28.3894L164.81 15.3894L164.741 15.25H164.586H163.356H163.2L163.131 15.3902L156.775 28.3902ZM161.928 23.2266L163.984 19.0658L166.016 23.2266H161.928Z" fill="#333" stroke="#333" stroke-width="0.5"/>
<path d="M184.313 17.9554L184.313 17.9554L184.316 17.9577C184.577 18.1548 184.722 18.4543 184.722 18.9026C184.722 19.3504 184.577 19.6574 184.313 19.8653C184.05 20.0704 183.625 20.1937 182.999 20.1937H177.299V17.6268H182.968C183.618 17.6268 184.051 17.7509 184.313 17.9554ZM185.136 25.8771L185.136 25.8771L185.134 25.8794C184.807 26.1973 184.327 26.3732 183.656 26.3732H177.299V22.6009H183.656C184.327 22.6009 184.807 22.7769 185.134 23.0948L185.134 23.0949L185.139 23.0994C185.473 23.4072 185.655 23.8522 185.655 24.4718C185.655 25.1026 185.472 25.559 185.136 25.8771ZM174.75 28.5V28.75H175H183.427C184.894 28.75 186.075 28.3944 186.939 27.6521L186.94 27.6519C187.818 26.8963 188.25 25.867 188.25 24.5939C188.25 23.8178 188.055 23.115 187.661 22.4927C187.328 21.957 186.86 21.4978 186.267 21.1124C186.558 20.8739 186.792 20.5879 186.967 20.2549L186.968 20.2527C187.203 19.796 187.317 19.283 187.317 18.7195C187.317 17.6038 186.954 16.7252 186.198 16.1284C185.453 15.5296 184.383 15.25 183.029 15.25H175H174.75V15.5V28.5Z" fill="#333" stroke="#333" stroke-width="0.5"/>
</svg>
