<?xml version="1.0"?>
<svg width="486" height="485" xmlns="http://www.w3.org/2000/svg" xmlns:svg="http://www.w3.org/2000/svg" xmlns:se="http://svg-edit.googlecode.com" data-name="верстка">
 <defs>
  <style>.cls-1 {
        fill: none;
        stroke: #FFF;
        stroke-linecap: round;
        stroke-linejoin: round;
        stroke-width: 14.17px;
      }</style>
 </defs>
 <g class="layer">
  <title>Layer 1</title>
  <path class="cls-1" d="m320.68,269.58c-2.28,0.67 -3.08,3.49 -1.48,5.24l22.81,25.03c1.3,1.43 2.01,3.27 1.94,5.05l-0.86,21.22c-0.12,2.9 -2.58,5.15 -5.48,5l-21.2,-1.1c-1.78,-0.09 -3.55,-0.97 -4.85,-2.4l-22.54,-24.73c-1.72,-1.89 -4.84,-1.32 -5.77,1.07c-7.72,19.8 -4.18,43.13 11.1,59.9c16.04,17.6 40.46,22.99 61.61,15.65l82.3,90.3c8.42,9.24 22.88,9.91 32.12,1.49l0,0c9.24,-8.42 9.91,-22.88 1.49,-32.12l-82.3,-90.3c9.26,-20.39 6.15,-45.2 -9.89,-62.8c-15.38,-16.88 -38.47,-22.52 -59,-16.48l0,-0.02z" fill="black" id="svg_1"/>
  <path class="cls-1" d="m8,135.74l0,-57.08c0,-15.89 13,-28.89 28.89,-28.89l373.27,0c15.89,0 28.89,13 28.89,28.89l0,260.93" id="svg_2"/>
  <path class="cls-1" d="m42.9,27.78c3.84,-11.46 14.7,-19.78 27.41,-19.78l373.27,0c15.89,0 28.89,13 28.89,28.89l0,260.93" id="svg_3"/>
  <path class="cls-1" d="m279.29,383.4l-242.4,0c-15.89,0 -28.89,-11.4 -28.89,-25.34l0,-177.71" id="svg_4"/>
  <rect class="cls-1" height="44.53" id="svg_5" rx="12" ry="12" width="74.84" x="53.47" y="139.29"/>
  <rect class="cls-1" height="112.74" id="svg_6" rx="12" ry="12" width="164.84" x="53.47" y="217.93"/>
  <polyline class="cls-1" id="svg_7" points="53.470001220703125,302.2400207519531 96.0999984741211,256.260009765625 122.62999725341797,291.82000732421875 160.52999877929688,279.25 212.6300048828125,302.2400207519531 "/>
  <line class="cls-1" id="svg_8" x1="135.89" x2="135.89" y1="244.45" y2="246.35"/>
  <line class="cls-1" id="svg_9" x1="157.68" x2="218.32" y1="139.29" y2="139.29"/>
  <line class="cls-1" id="svg_10" x1="157.68" x2="218.32" y1="167.48" y2="167.48"/>
  <line class="cls-1" id="svg_11" x1="268.53" x2="404" y1="139.29" y2="139.29"/>
  <line class="cls-1" id="svg_12" x1="268.53" x2="404" y1="167.48" y2="167.48"/>
  <line class="cls-1" id="svg_13" x1="268.53" x2="404" y1="195.66" y2="195.66"/>
  <line class="cls-1" id="svg_14" x1="8" x2="439.05" y1="105.38" y2="105.38"/>
  <line class="cls-1" id="svg_15" x1="44.23" x2="49.28" y1="76.73" y2="76.73"/>
  <line class="cls-1" id="svg_16" x1="81.23" x2="86.28" y1="76.73" y2="76.73"/>
  <line class="cls-1" id="svg_17" x1="118.23" x2="123.28" y1="76.73" y2="76.73"/>
  <line class="cls-1" id="svg_18" x1="439.05" x2="472.47" y1="68.1" y2="68.1"/>
 </g>
</svg>