<?xml version="1.0"?>
<svg width="464" height="386" xmlns="http://www.w3.org/2000/svg" xmlns:svg="http://www.w3.org/2000/svg" xmlns:se="http://svg-edit.googlecode.com" data-name="сео-оптимизация">
 <defs>
  <style>.cls-1 {
        fill: none;
        stroke: #FFFFFF;
        stroke-linecap: round;
        stroke-linejoin: round;
        stroke-width: 14.17px;
      }</style>
 </defs>
 <g class="layer">
  <title>Layer 1</title>
  <path class="cls-1" d="m92.887427,194.469997s28.98,-26.47 69.88,-29.08c27.36,-1.75 45.38,8.58 54.31,15.61c4.96,3.9 11.12,5.94 17.42,5.66l75.15,-3.42c7.79,-0.35 15.35,2.78 20.55,8.59c4.31,4.81 8.44,11.45 9.23,19.68c0.84,8.77 -3.34,15.74 -7.91,20.61c-4.88,5.21 -11.75,8.11 -18.89,8.11l-77.63,0" id="svg_1"/>
  <path class="cls-1" d="m337.827427,197.879997l73.95,-66.21c3.52,-3.15 7.84,-5.3 12.48,-6.18c0.51,-0.1 1.01,-0.19 1.51,-0.28c23.93,-4.2 40.06,23.78 24.45,42.4l-105.59,125.96c-4.95,5.9 -12.26,9.32 -19.97,9.32l-136.77,0c-7.15,0 -13.99,2.94 -18.91,8.13l-7.96,8.4" fill="black" id="svg_2"/>
  <path class="cls-1" d="m125.007427,256.939997l36.87,69.09c4.64,8.7 1.32,19.62 -7.38,24.27l-47.43,25.31c-8.7,4.64 -19.62,1.32 -24.27,-7.38l-73.7,-138.12c-4.64,-8.7 -1.32,-19.62 7.38,-24.27l47.43,-25.31c8.7,-4.64 19.62,-1.32 24.27,7.38l19.61,36.75" id="svg_3"/>
  <polyline class="cls-1" id="svg_4" points="296.53741455078125,8 262.1374206542969,8 262.1374206542969,68.6399917602539 262.1374206542969,133.64999389648438 294.78741455078125,133.64999389648438 "/>
  <line class="cls-1" id="svg_5" x1="295.077427" x2="262.137427" y1="68.639997" y2="68.639997"/>
  <rect class="cls-1" height="125.65" id="svg_6" rx="9.59" ry="9.59" width="45.04" x="321.317427" y="7.999997"/>
  <path class="cls-1" d="m232.547427,33.949997l0,-14.07c0,-6.53 -5.35,-11.88 -11.88,-11.88l-21.28,0c-6.53,0 -11.88,5.35 -11.88,11.88l0,38.55l45.04,24.93l0,38.41c0,6.53 -5.35,11.88 -11.88,11.88l-21.28,0c-6.53,0 -11.88,-5.35 -11.88,-11.88l0,-7.94" id="svg_7"/>
 </g>
</svg>