<svg xmlns="http://www.w3.org/2000/svg" width="512" height="512" viewBox="0 0 512 512" version="1.1">
	<path d="M 185.893 1.497 C 180.525 4.415, 179.549 7.347, 179.161 21.732 C 178.840 33.644, 179.018 35.407, 180.947 39.390 C 183.219 44.084, 187.608 47, 192.401 47 C 194.766 47, 195 47.359, 195 51 L 195 55 137.684 55 C 101.085 55, 78.266 55.389, 74.553 56.075 C 55.239 59.645, 40.238 75.824, 37.884 95.624 C 37.332 100.267, 37.061 159.458, 37.224 239.837 L 37.500 376.173 40.306 378.587 C 43.999 381.763, 46.522 381.632, 50.077 378.077 L 53 375.154 53 333.077 L 53 291 182.520 291 L 312.040 291 311.770 383.750 L 311.500 476.500 309.334 480.545 C 306.345 486.129, 299.343 492.318, 293.441 494.594 C 288.693 496.426, 284.350 496.500, 182 496.500 L 75.500 496.500 70.221 494.114 C 63.317 490.995, 56.511 483.459, 54.510 476.721 C 53.297 472.637, 53 465.166, 53 438.742 L 53 405.846 50.077 402.923 C 46.522 399.369, 44 399.237, 40.306 402.412 L 37.500 404.824 37.196 434.662 C 36.842 469.377, 37.633 477.698, 42.172 487 C 47.752 498.436, 59.857 508.114, 72.115 510.940 C 74.920 511.587, 114.928 511.960, 183.161 511.976 C 285.073 511.999, 290.093 511.916, 295.909 510.105 C 311.727 505.182, 323.870 491.505, 326.979 475.109 C 327.641 471.622, 328 424.013, 328 339.864 L 328 210 343 210 L 358 210 358 212.599 C 358 217.306, 360.921 221.783, 365.409 223.956 C 368.955 225.673, 371.587 226, 381.848 226 C 395.924 226, 399.913 224.831, 402.974 219.810 C 404.750 216.898, 404.993 214.779, 404.996 202.200 C 405.001 183.519, 403.377 180.253, 393.228 178.539 L 389 177.824 389 112.412 L 389 47 392.050 47 C 395.939 47, 400.247 44.773, 402.912 41.385 C 404.824 38.954, 405 37.433, 405 23.350 L 405 7.971 401.579 4.235 L 398.159 0.500 383.166 0.179 C 370.855 -0.084, 367.614 0.148, 365.043 1.478 C 361.126 3.504, 358.009 8.495, 358.004 12.750 L 358 16 292.628 16 L 227.256 16 226.605 11.930 C 225.794 6.859, 223.536 3.329, 219.901 1.449 C 215.985 -0.576, 189.639 -0.539, 185.893 1.497 M 195 23.500 L 195 32 203 32 L 211 32 211 23.500 L 211 15 203 15 L 195 15 195 23.500 M 373.210 23.250 L 373.500 31.500 381.750 31.790 L 390 32.081 390 23.540 L 390 15 381.460 15 L 372.919 15 373.210 23.250 M 226.978 33.250 C 226.966 34.487, 226.123 37.334, 225.105 39.576 C 223.125 43.935, 218.375 47, 213.599 47 L 211 47 211 112.412 L 211 177.824 215.226 178.538 C 220.877 179.493, 225.507 184.123, 226.462 189.774 L 227.176 194 292.456 194 L 357.737 194 358.307 189.751 C 359.039 184.290, 363.947 179.523, 369.864 178.523 L 374 177.824 374 112.412 L 374 47 370.750 46.996 C 364.106 46.989, 358 40.788, 358 34.050 L 358 31 292.500 31 L 227 31 226.978 33.250 M 72.703 72.442 C 63.680 75.661, 56.417 83.239, 53.993 91.965 C 53.384 94.157, 53.009 129.602, 53.006 185.250 L 53 275 182.500 275 L 312 275 312 242.500 L 312 210 297.500 210 L 283 210 282.994 225.250 C 282.991 233.637, 282.536 242.129, 281.983 244.121 C 280.785 248.436, 275.407 253.983, 270.807 255.650 C 266.274 257.292, 101.389 257.513, 95.523 255.885 C 90.425 254.469, 84.531 248.575, 83.115 243.477 C 81.607 238.046, 81.607 169.954, 83.115 164.523 C 84.531 159.425, 90.425 153.531, 95.523 152.115 C 97.710 151.508, 103.022 151.009, 107.327 151.006 C 114.648 151, 115.343 151.189, 118.077 153.923 C 121.774 157.620, 121.774 160.380, 118.077 164.077 C 115.301 166.853, 114.723 167, 106.577 167 L 98 167 98 204 L 98 241 182.500 241 L 267 241 267 225.500 L 267 210 247.088 210 L 227.176 210 226.505 213.971 C 225.672 218.902, 222.678 222.819, 218.364 224.621 C 213.229 226.767, 191.503 226.508, 187.071 224.248 C 180.791 221.046, 179.574 218.230, 179.153 205.930 C 178.946 199.901, 179.093 192.865, 179.479 190.294 C 180.396 184.177, 184.853 179.539, 190.774 178.538 L 195 177.824 195 172.412 L 195 167 170.423 167 L 145.846 167 142.923 164.077 C 141.315 162.469, 140 160.185, 140 159 C 140 157.815, 141.315 155.531, 142.923 153.923 L 145.846 151 170.423 151 L 195 151 195 111 L 195 71 135.750 71.044 C 88.534 71.079, 75.729 71.363, 72.703 72.442 M 245.635 74.073 C 242.191 76.782, 242.043 81.752, 245.314 84.826 C 246.994 86.404, 248.883 87, 252.204 87 C 258.373 87, 261.400 84.531, 261.400 79.500 C 261.400 76.780, 260.762 75.225, 259.089 73.871 C 255.891 71.282, 249.053 71.384, 245.635 74.073 M 279.789 73.363 C 275.687 76.480, 276.117 84.680, 280.471 86.350 C 281.402 86.708, 294.522 87, 309.627 87 L 337.091 87 339.545 84.545 C 340.895 83.195, 342 80.925, 342 79.500 C 342 78.075, 340.895 75.805, 339.545 74.455 L 337.091 72 309.295 72.032 C 288.077 72.056, 281.095 72.371, 279.789 73.363 M 85.736 101.250 C 81.679 104.331, 82.148 112.691, 86.471 114.350 C 87.402 114.708, 107.047 115, 130.127 115 L 172.091 115 174.545 112.545 C 175.895 111.195, 177 108.925, 177 107.500 C 177 106.075, 175.895 103.805, 174.545 102.455 L 172.091 100 129.737 100 C 97.398 100, 86.993 100.296, 85.736 101.250 M 245.455 107.455 C 242.420 110.489, 242.265 114.834, 245.083 117.859 C 246.841 119.746, 248.034 120.048, 252.731 119.797 C 257.412 119.547, 258.611 119.077, 260.278 116.837 C 264.225 111.534, 259.802 105, 252.266 105 C 248.973 105, 247.309 105.600, 245.455 107.455 M 279.399 107.333 C 275.963 110.289, 275.793 115.604, 279.051 118.242 C 281.008 119.827, 284.012 120, 309.538 120 L 337.855 120 340.006 117.266 C 342.588 113.983, 342.102 109.420, 338.886 106.750 C 336.992 105.177, 334.007 105, 309.445 105 C 282.252 105, 282.098 105.012, 279.399 107.333 M 245.455 140.455 C 241.286 144.623, 242.498 150.721, 247.945 152.977 C 252.098 154.698, 257.448 153.518, 259.957 150.328 C 262.749 146.778, 262.523 144.370, 259.077 140.923 C 255.187 137.033, 249.086 136.823, 245.455 140.455 M 279.635 140.073 C 276.223 142.757, 275.947 148.736, 279.103 151.595 C 281.044 153.353, 283.261 153.520, 307.853 153.760 C 336.567 154.040, 338.127 153.809, 340.898 148.873 C 342.761 145.554, 341.046 140.798, 337.385 139.130 C 335.743 138.382, 326.018 138, 308.588 138 C 283.477 138, 282.149 138.095, 279.635 140.073 M 195 202 L 195 210 203 210 L 211 210 211 202 L 211 194 203 194 L 195 194 195 202 M 373 202 L 373 210 381.500 210 L 390 210 390 202 L 390 194 381.500 194 L 373 194 373 202 M 368.764 244.976 C 360.725 247.455, 354.818 254.058, 352.988 262.610 C 352.268 265.974, 351.998 281.522, 352.197 308.110 C 352.497 348.138, 352.521 348.543, 354.840 353.251 C 357.585 358.825, 362.581 363.258, 367.922 364.859 C 373.222 366.446, 453.778 366.446, 459.078 364.859 C 464.419 363.258, 469.415 358.825, 472.160 353.251 C 474.479 348.543, 474.503 348.138, 474.803 308.110 C 475.002 281.522, 474.732 265.974, 474.012 262.610 C 472.585 255.938, 468.741 250.520, 463.070 247.187 L 458.500 244.500 415 244.316 C 391.075 244.214, 370.269 244.511, 368.764 244.976 M 373.259 259.683 C 368.503 260.646, 368 262.974, 368 284.049 L 368 303.654 370.987 303.215 C 376.336 302.430, 379.252 304.007, 387.702 312.255 L 396.022 320.376 417.265 299.279 C 434.612 282.052, 439.152 278.062, 442.015 277.525 C 446.586 276.668, 450.620 278.264, 455.250 282.762 L 459 286.406 459 275.314 C 459 265.885, 458.714 263.868, 457.089 261.861 L 455.178 259.500 415.339 259.365 C 393.428 259.291, 374.491 259.434, 373.259 259.683 M 390.073 275.635 C 387.323 279.130, 387.455 282.546, 390.455 285.545 C 393.454 288.545, 396.870 288.677, 400.365 285.927 C 403.667 283.330, 403.978 277.978, 401 275 C 398.022 272.022, 392.670 272.333, 390.073 275.635 M 423.500 314.936 C 410.134 328.254, 401.498 336.107, 399.743 336.540 C 394.241 337.898, 390.797 336.293, 383.500 328.970 C 374.237 319.674, 373.428 319.249, 370.406 322.089 C 368.141 324.216, 368 325.009, 368 335.602 C 368 352.350, 363.995 351, 413.680 351 L 454.091 351 456.545 348.545 C 458.982 346.109, 459 345.950, 459 326.769 L 459 307.446 452.225 300.723 C 448.499 297.025, 445.236 294.003, 444.975 294.006 C 444.714 294.010, 435.050 303.429, 423.500 314.936 M 90.071 314.752 C 88.185 315.713, 85.710 317.770, 84.571 319.323 C 82.613 321.992, 82.500 323.449, 82.500 346 C 82.500 368.551, 82.613 370.008, 84.571 372.677 C 88.815 378.462, 91.369 378.997, 114.782 378.998 C 137.838 379, 140.395 378.539, 145 373.548 L 147.500 370.839 147.500 346 L 147.500 321.161 145 318.452 C 140.395 313.461, 137.838 313, 114.782 313.002 C 96.497 313.003, 93.017 313.249, 90.071 314.752 M 98 346 L 98 363 115 363 L 132 363 132 346 L 132 329 115 329 L 98 329 98 346 M 167.389 340.342 C 165.444 342.015, 164.667 343.630, 164.667 346 C 164.667 348.370, 165.444 349.985, 167.389 351.658 L 170.112 354 223.633 354 L 277.154 354 280.077 351.077 C 281.685 349.469, 283 347.185, 283 346 C 283 344.815, 281.685 342.531, 280.077 340.923 L 277.154 338 223.633 338 L 170.112 338 167.389 340.342 M 365.994 386.934 C 358.803 389.122, 353.160 393.976, 350.553 400.218 C 349.378 403.032, 349 407.674, 349 419.313 C 349 432.706, 349.226 434.888, 350.750 436.227 C 353.447 438.595, 356.694 439.234, 359.212 437.892 C 363.552 435.580, 363.935 434.134, 363.968 419.939 C 364.015 400.016, 358.754 402, 411.539 402 C 453.667 402, 455.061 402.061, 457 404 C 458.938 405.938, 459 407.333, 459 449.045 L 459 492.091 456.545 494.545 L 454.091 497 411.500 497 L 368.909 497 366.455 494.545 C 364.081 492.172, 363.999 491.620, 363.968 477.795 C 363.947 468.138, 363.541 462.985, 362.718 461.913 C 359.510 457.734, 353.843 457.306, 350.508 460.991 C 349.093 462.555, 348.912 465.198, 349.184 480.307 L 349.500 497.811 352.638 502.155 C 354.524 504.768, 357.859 507.596, 361.002 509.250 L 366.228 512 410.748 512 C 443.077 512, 456.395 511.663, 459.384 510.770 C 464.491 509.244, 471.270 502.649, 473.121 497.405 C 474.215 494.308, 474.500 484.186, 474.500 448.500 C 474.500 403.954, 474.478 403.458, 472.284 399.357 C 469.313 393.801, 462.861 388.454, 457.499 387.104 C 452.472 385.838, 370.099 385.685, 365.994 386.934 M 89.334 405.064 C 82.453 408.470, 82 410.382, 82 436 C 82 461.697, 82.453 463.588, 89.409 466.956 C 93.260 468.820, 95.519 469, 115.066 468.998 C 138.646 468.997, 141.180 468.469, 145.429 462.677 C 147.387 460.008, 147.500 458.551, 147.500 436 C 147.500 413.449, 147.387 411.992, 145.429 409.323 C 141.177 403.528, 138.652 403.003, 115 403.002 C 95.297 403.002, 93.152 403.174, 89.334 405.064 M 380.635 417.073 C 378.161 419.019, 378 419.659, 378 427.573 C 378 437.404, 379.552 440, 385.427 440 C 389.153 440, 393 436.376, 393 432.865 C 393 431.271, 393.799 431, 398.500 431 L 404 431 404 449.500 C 404 467.070, 403.904 468, 402.082 468 C 397.188 468, 393.410 472.800, 394.593 477.515 C 395.763 482.178, 398.337 483, 411.768 483 C 423.518 483, 424.205 482.886, 426.545 480.545 C 427.895 479.195, 429 476.925, 429 475.500 C 429 472.185, 424.841 468, 421.545 468 L 419 468 419 449.500 L 419 431 424.500 431 C 429.201 431, 430 431.271, 430 432.865 C 430 433.891, 430.933 435.916, 432.073 437.365 C 433.657 439.380, 435.033 440, 437.918 440 C 443.915 440, 445.500 437.452, 445.500 427.808 C 445.500 420.303, 445.333 419.683, 442.694 417.413 L 439.888 415 411.579 415 C 384.453 415, 383.160 415.087, 380.635 417.073 M 98 436 L 98 453 115 453 L 132 453 132 436 L 132 419 115 419 L 98 419 98 436 M 168.321 429.175 C 162.918 431.821, 163.259 440.622, 168.856 442.940 C 170.739 443.720, 187.379 443.970, 224.665 443.776 C 275.292 443.513, 277.890 443.410, 279.896 441.595 C 282.757 439.005, 282.757 432.995, 279.896 430.405 C 277.887 428.587, 275.346 428.491, 224.146 428.304 C 187.783 428.171, 169.798 428.452, 168.321 429.175" stroke="none" fill="black" fill-rule="evenodd"/>
</svg>