<svg xmlns="http://www.w3.org/2000/svg" width="512" height="512" viewBox="0 0 512 512" version="1.1">
	<path d="M 60.881 2.793 C 57.548 4.534, 54.398 7.202, 52.517 9.875 C 49.584 14.044, 49.491 14.532, 49.177 27.360 C 48.822 41.848, 49.238 43.030, 55.225 44.524 C 57.430 45.075, 58.526 44.628, 60.975 42.179 C 63.923 39.231, 64 38.907, 64 29.531 C 64 20.648, 64.189 19.720, 66.455 17.455 L 68.909 15 136 15 L 203.091 15 205.545 17.455 L 208 19.909 208 70.882 L 208 121.855 205.365 123.927 C 202.759 125.977, 201.995 126, 136 126 C 70.005 126, 69.241 125.977, 66.635 123.927 L 64 121.855 64 95.850 L 64 69.846 60.975 66.821 C 58.526 64.372, 57.430 63.925, 55.225 64.476 C 48.762 66.089, 48.887 65.404, 49.208 97.518 L 49.500 126.651 52.259 130.817 C 53.776 133.108, 56.893 136.224, 59.185 137.741 L 63.353 140.500 133.926 140.800 C 179.936 140.996, 205.718 140.745, 208 140.079 C 213.037 138.608, 218.460 133.734, 221.160 128.251 L 223.500 123.500 223.802 74.258 C 223.995 42.731, 223.725 22.944, 223.050 19.258 C 221.621 11.446, 217.779 6.155, 211.064 2.750 L 205.641 0 135.935 -0 L 66.228 -0 60.881 2.793 M 255.310 2.436 C 248.952 5.396, 244.532 11.118, 243.037 18.323 C 242.310 21.827, 242.050 49.418, 242.232 103.723 C 242.495 182.441, 242.537 183.982, 244.500 185.909 C 245.600 186.990, 247.726 188.173, 249.225 188.539 C 251.421 189.075, 252.536 188.618, 254.975 186.179 L 258 183.154 258 101.150 L 258 19.145 260.635 17.073 C 263.256 15.011, 263.729 15, 353.680 15 L 444.091 15 446.545 17.455 L 449 19.909 449 131.280 L 449 242.651 446.686 244.826 L 444.371 247 353.360 247 L 262.349 247 260.174 244.686 C 258.152 242.533, 258 241.376, 258 228.109 L 258 213.846 254.975 210.821 C 252.536 208.382, 251.421 207.925, 249.225 208.461 C 247.726 208.827, 245.600 210.012, 244.500 211.095 C 242.661 212.906, 242.502 214.373, 242.520 229.282 C 242.536 243.087, 242.814 246.021, 244.384 249 C 246.956 253.880, 250.806 257.809, 255.500 260.342 L 259.500 262.500 352.500 262.500 C 439.822 262.500, 445.786 262.390, 450.186 260.692 C 455.773 258.536, 461.456 252.596, 462.988 247.312 C 463.774 244.600, 464.007 210.405, 463.796 128.836 L 463.500 14.172 460.483 9.879 C 458.600 7.200, 455.456 4.537, 452.119 2.793 L 446.772 0 353.636 0.010 L 260.500 0.020 255.310 2.436 M 338.500 44.867 C 319.979 50.189, 304.312 66.187, 299.489 84.703 C 297.581 92.028, 297.581 104.972, 299.489 112.297 C 304.445 131.324, 320.676 147.555, 339.703 152.511 C 347.028 154.419, 359.972 154.419, 367.297 152.511 C 381.376 148.844, 396.037 137.242, 402.696 124.500 C 411.142 108.338, 411.142 88.662, 402.696 72.500 C 396.037 59.758, 381.376 48.156, 367.297 44.489 C 359.739 42.520, 346.040 42.700, 338.500 44.867 M 77.911 46.871 C 76.238 48.225, 75.600 49.780, 75.600 52.500 C 75.600 57.435, 78.644 60, 84.500 60 C 90.356 60, 93.400 57.435, 93.400 52.500 C 93.400 47.565, 90.356 45, 84.500 45 C 81.810 45, 79.364 45.695, 77.911 46.871 M 107.174 47.314 C 104.286 50.389, 104.348 55.039, 107.314 57.826 C 109.613 59.985, 109.908 60, 150.704 60 C 189.346 60, 191.915 59.889, 194.089 58.129 C 197.300 55.529, 197.300 49.471, 194.089 46.871 C 191.915 45.111, 189.343 45, 150.564 45 L 109.349 45 107.174 47.314 M 343.251 59.481 C 335.430 61.682, 330.268 64.637, 324.952 69.952 C 310.027 84.878, 309.038 107.890, 322.602 124.641 C 330.063 133.855, 343.881 139.698, 355.849 138.700 C 364.837 137.951, 368.627 136.687, 375.808 132.046 C 382.691 127.597, 387.935 121.095, 391.168 113 C 394.179 105.463, 394.263 91.723, 391.343 84.406 C 386.800 73.019, 378.932 65.105, 368 60.926 C 360.846 58.191, 350.068 57.562, 343.251 59.481 M 77.911 82.871 C 76.238 84.225, 75.600 85.780, 75.600 88.500 C 75.600 93.435, 78.644 96, 84.500 96 C 90.356 96, 93.400 93.435, 93.400 88.500 C 93.400 83.565, 90.356 81, 84.500 81 C 81.810 81, 79.364 81.695, 77.911 82.871 M 107.174 83.314 C 104.286 86.389, 104.348 91.039, 107.314 93.826 C 109.613 95.985, 109.908 96, 150.704 96 C 189.346 96, 191.915 95.889, 194.089 94.129 C 197.300 91.529, 197.300 85.471, 194.089 82.871 C 191.915 81.111, 189.343 81, 150.564 81 L 109.349 81 107.174 83.314 M 66.500 163.919 C 59.640 165.626, 53.850 170.286, 50.614 176.700 C 48.250 181.388, 48.198 243.143, 50.553 248.782 C 52.523 253.498, 56.395 257.587, 61.500 260.342 C 65.490 262.495, 65.677 262.500, 136 262.500 L 206.500 262.500 210.595 260.309 C 212.847 259.104, 216.062 256.555, 217.739 254.645 C 223.238 248.381, 223.500 246.445, 223.500 212 C 223.500 183.183, 223.341 180.202, 221.636 177 C 219.027 172.101, 215.180 168.184, 210.500 165.658 C 206.522 163.512, 206.120 163.499, 138 163.336 C 100.325 163.245, 68.150 163.508, 66.500 163.919 M 301.120 176.054 C 293.689 177.557, 288.094 181.962, 284.401 189.217 C 281.380 195.151, 281.151 204.533, 283.878 210.539 C 286.190 215.626, 293.672 222.286, 298.807 223.824 C 301.596 224.660, 317.599 224.997, 354.116 224.990 L 405.500 224.980 410.507 222.649 C 415.962 220.109, 421.460 214.537, 423.625 209.355 C 424.381 207.545, 425 203.560, 425 200.500 C 425 190.721, 420.227 182.738, 411.688 178.235 L 406.500 175.500 356 175.334 C 328.225 175.243, 303.529 175.567, 301.120 176.054 M 66 181 C 64.089 182.911, 64 184.333, 64 212.826 L 64 242.651 66.314 244.826 L 68.629 247 136.140 247 L 203.651 247 205.826 244.686 C 207.957 242.417, 208 241.788, 208 212.686 C 208 184.333, 207.910 182.910, 206 181 C 204.039 179.039, 202.667 179, 136 179 C 69.333 179, 67.961 179.039, 66 181 M 299.923 193.923 C 296.852 196.994, 296.298 200.024, 297.994 204.483 C 300.029 209.836, 301.672 210, 353.319 210 C 385.418 210, 401.727 209.642, 403.881 208.892 C 410.163 206.702, 411.869 198.715, 407.077 193.923 L 404.154 191 353.500 191 L 302.846 191 299.923 193.923 M 86 205.695 C 80.887 207.623, 79.364 213.758, 82.912 218.139 L 84.823 220.500 136 220.500 L 187.177 220.500 189.088 218.139 C 191.657 214.967, 191.565 209.821, 188.896 207.405 C 186.892 205.591, 184.420 205.491, 137.146 205.315 C 109.841 205.213, 86.825 205.384, 86 205.695 M 63.182 282.515 C 57.402 285.033, 54.024 288.029, 50.978 293.340 L 48.019 298.500 48.009 324.595 C 47.999 353.245, 47.939 352.955, 54.225 354.524 C 56.430 355.075, 57.526 354.628, 59.975 352.179 L 63 349.154 63 325.500 L 63 301.846 65.923 298.923 L 68.846 296 256 296 L 443.154 296 446.077 298.923 L 449 301.846 449 362.989 C 449 425.782, 448.943 426.758, 445.087 429.718 C 443.865 430.656, 421.051 430.944, 345.924 430.968 L 248.349 431 245.924 428.380 C 238.296 420.137, 230.554 418, 208.318 418 L 191 418 191 407.609 L 191 397.218 205.750 396.812 C 219.315 396.440, 220.953 396.188, 226.143 393.682 C 232.439 390.641, 238.715 384.414, 242.102 377.849 C 245.477 371.306, 245.891 359.349, 243.008 351.703 C 240.026 343.797, 232.464 336.122, 224.497 332.914 L 218.500 330.500 164.500 330.500 L 110.500 330.500 104.266 333.380 C 96.996 336.737, 89.884 343.795, 86.728 350.783 C 83.490 357.954, 83.656 369.702, 87.101 377.046 C 90.813 384.959, 95.204 389.482, 102.811 393.229 C 109.175 396.365, 110.020 396.514, 123.225 396.846 L 137 397.192 137 414.096 L 137 431 102.750 430.968 C 77.404 430.945, 68.088 430.620, 66.913 429.718 C 63.364 426.993, 63 424.411, 63 401.989 L 63 379.846 59.975 376.821 C 57.526 374.372, 56.430 373.925, 54.225 374.476 C 47.967 376.037, 48 375.887, 48 403.187 C 48 422.032, 48.333 428.862, 49.375 431.355 C 51.336 436.049, 56.638 441.758, 61.405 444.309 C 65.365 446.428, 66.670 446.510, 101.122 446.797 L 136.743 447.093 137.193 466.297 C 137.623 484.708, 137.757 485.757, 140.445 491.722 C 144.077 499.785, 151.512 506.925, 159.313 509.844 C 164.775 511.888, 166.727 511.999, 196.788 511.976 C 227.536 511.953, 228.669 511.883, 234.074 509.660 C 241.120 506.761, 245.775 503.054, 249.783 497.148 C 254.876 489.644, 256.139 482.591, 255.797 463.560 L 255.500 447.036 351 446.768 L 446.500 446.500 450.643 444.284 C 455.780 441.537, 461.706 434.749, 463.072 430.045 C 463.746 427.726, 463.998 404.165, 463.801 361.921 L 463.500 297.342 460.474 292.447 C 458.598 289.414, 455.585 286.402, 452.552 284.526 L 447.657 281.500 257.079 281.285 C 92.748 281.100, 66.043 281.269, 63.182 282.515 M 290.073 341.635 C 287.323 345.130, 287.455 348.546, 290.455 351.545 L 292.909 354 359.320 354 C 424.991 354, 425.760 353.977, 428.365 351.927 C 431.667 349.330, 431.978 343.978, 429 341 C 427.040 339.040, 425.667 339, 359.573 339 L 292.145 339 290.073 341.635 M 108.830 348.027 C 99.844 352.774, 96.764 365.849, 102.745 373.861 C 107.567 380.319, 112.581 381.887, 128.629 381.956 L 138.757 382 140.101 378.757 C 141.991 374.193, 147.650 368.219, 152.359 365.817 C 157.330 363.281, 166.156 362.414, 171.708 363.916 C 177.687 365.534, 184.010 370.707, 187.500 376.837 L 190.500 382.106 203.523 381.781 C 215.578 381.480, 216.891 381.254, 221.177 378.742 C 233.283 371.648, 232.580 354.203, 219.929 347.752 C 216.791 346.152, 212.083 346.007, 164.500 346.046 C 115.025 346.086, 112.322 346.183, 108.830 348.027 M 349.091 374.072 C 342.694 376.677, 342.105 384.452, 348.072 387.537 C 350.407 388.745, 357.434 389, 388.315 389 C 424.653 389, 425.806 388.940, 428.365 386.927 C 431.588 384.393, 431.917 379.355, 429.089 375.861 L 427.178 373.500 389.339 373.295 C 366.395 373.171, 350.552 373.477, 349.091 374.072 M 159.198 379.624 C 152.907 382.818, 152.998 382.005, 153.022 434.700 C 153.047 489.152, 152.927 488.275, 161.096 493.684 L 165.349 496.500 194.110 496.806 C 224.159 497.126, 228.587 496.686, 233.397 492.902 C 239.173 488.359, 240 484.853, 240 464.926 C 240 448.045, 239.845 446.496, 237.788 442.837 C 236.572 440.672, 233.984 437.911, 232.038 436.701 C 228.722 434.638, 227.012 434.469, 204.775 434 C 181.757 433.515, 180.983 433.432, 178.775 431.225 C 176.581 429.031, 176.482 428.173, 176 406.992 L 175.500 385.033 172.450 381.986 C 168.662 378.201, 163.732 377.322, 159.198 379.624" stroke="none" fill="black" fill-rule="evenodd"/>
</svg>