<svg xmlns="http://www.w3.org/2000/svg" width="512" height="512" viewBox="0 0 512 512" version="1.1">
	<path d="M 13.168 27.603 C 7.629 30.364, 4.037 34.274, 1.531 40.272 C 0.177 43.512, 0.001 63.223, 0.006 210.718 C 0.009 319.515, 0.361 378.759, 1.017 381.123 C 2.405 386.116, 9.101 393.413, 14.234 395.525 C 17.266 396.772, 22.333 397.422, 31.750 397.770 L 45 398.261 45.022 411.380 C 45.047 426.508, 46.225 430.356, 52.520 435.884 C 58.634 441.251, 61.490 442, 75.854 442 L 88.773 442 89.190 455.750 C 89.539 467.272, 89.947 470.148, 91.711 473.500 C 94.451 478.705, 98.420 482.393, 104 484.919 C 108.477 486.946, 109.498 486.956, 301.054 486.978 L 493.607 487 498.832 484.397 C 504.440 481.602, 507.948 477.742, 510.601 471.446 C 512.133 467.813, 512.281 450.631, 512.469 255 C 512.581 138.125, 512.409 62.975, 512.087 88 C 511.764 113.025, 511.193 132.136, 510.819 130.469 C 509.842 126.121, 502.761 118.530, 497.766 116.475 C 494.734 115.228, 489.667 114.578, 480.250 114.230 L 467 113.739 466.978 100.620 C 466.953 85.492, 465.775 81.644, 459.480 76.116 C 453.366 70.749, 450.510 70, 436.146 70 L 423.227 70 422.810 56.250 C 422.458 44.617, 422.061 41.862, 420.231 38.357 C 417.511 33.147, 411.187 27.672, 406.142 26.161 C 403.278 25.303, 363.921 25, 255.216 25 C 174.337 25, 107.435 25.280, 106.545 25.621 C 104.103 26.558, 101.862 31.602, 102.593 34.515 C 104.058 40.351, 94.373 40, 253.772 40 C 409.741 40, 404.576 39.846, 406.379 44.545 C 406.720 45.435, 407 56.027, 407 68.082 L 407 90 211 90 L 15 90 15 68.056 C 15 46.305, 15.021 46.087, 17.412 43.306 L 19.823 40.500 49.261 40 C 80.587 39.468, 81.189 39.367, 82.423 34.450 C 83.138 31.604, 80.865 26.546, 78.455 25.621 C 77.565 25.280, 63.687 25, 47.615 25 L 18.393 25 13.168 27.603 M 0.488 211 C 0.488 303.675, 0.606 341.587, 0.750 295.250 C 0.894 248.912, 0.894 173.087, 0.750 126.750 C 0.606 80.412, 0.488 118.325, 0.488 211 M 317.736 59.250 C 313.852 62.199, 313.874 68.663, 317.777 71.627 C 322.472 75.194, 331 71.242, 331 65.500 C 331 59.816, 322.355 55.742, 317.736 59.250 M 346.073 60.635 C 343.323 64.130, 343.455 67.546, 346.455 70.545 C 351.556 75.647, 360 72.305, 360 65.186 C 360 60.742, 356.975 58, 352.073 58 C 349.021 58, 347.683 58.587, 346.073 60.635 M 377.229 58.669 C 376.530 58.951, 375.294 60.465, 374.482 62.034 C 371.778 67.263, 375.554 72.908, 381.795 72.968 C 385.841 73.007, 390 69.222, 390 65.500 C 390 61.746, 385.839 57.982, 381.795 58.079 C 379.983 58.122, 377.928 58.388, 377.229 58.669 M 423 110 L 423 135 437.500 135 L 452 135 452 113.547 C 452 99.954, 451.593 91.201, 450.890 89.657 C 449.185 85.916, 445.855 85, 433.953 85 L 423 85 423 110 M 15 240.566 C 15 379.532, 14.948 377.674, 18.913 380.718 C 20.147 381.666, 62.891 381.943, 211.295 381.968 L 402.091 382 404.545 379.545 L 407 377.091 407 241.545 L 407 106 211 106 L 15 106 15 240.566 M 40.270 124.483 C 38.493 125.255, 36.132 127.375, 35.023 129.193 C 33.096 132.354, 33.007 134.164, 33.004 170.265 L 33 208.029 36.423 211.765 L 39.846 215.500 210.173 215.751 C 379.612 216.001, 380.517 215.992, 383.810 213.979 C 389.809 210.313, 390 208.932, 390 169.180 C 390 133.538, 389.985 133.273, 387.730 129.898 C 386.482 128.029, 383.894 125.713, 381.980 124.752 C 378.707 123.107, 368.517 123.005, 211 123.041 C 69.444 123.072, 43 123.296, 40.270 124.483 M 467 155 L 467 180 482 180 L 497 180 497 158.434 C 497 129.417, 497.414 130.079, 479.250 130.032 L 467 130 467 155 M 48 170 L 48 201 211 201 L 374 201 374 170 L 374 139 211 139 L 48 139 48 170 M 423 262.782 C 423 351.451, 422.730 375.604, 421.696 379.592 C 419.967 386.258, 416.158 391.040, 409.754 394.589 L 404.500 397.500 232.250 397.769 L 60 398.039 60.032 409.769 C 60.065 421.971, 60.546 423.633, 64.684 425.837 C 67.744 427.466, 443.769 427.518, 447.343 425.890 C 448.683 425.279, 450.279 423.683, 450.890 422.343 C 451.671 420.629, 452.009 397.892, 452.032 345.703 C 452.056 288.950, 452.350 271.127, 453.282 269.913 C 456.433 265.809, 461.341 265.341, 465.250 268.773 C 466.889 270.212, 466.999 275.217, 466.978 347.405 C 466.953 434.001, 467.382 428.946, 459.480 435.884 C 451.992 442.458, 465.647 442, 277.032 442 L 105 442 105 454.500 C 105 465.613, 105.219 467.219, 106.975 468.975 C 108.061 470.061, 109.973 471.197, 111.225 471.501 C 112.476 471.804, 198.701 471.928, 302.837 471.776 L 492.173 471.500 494.587 468.694 L 497 465.888 497 330.418 L 497 194.947 482.250 195.223 L 467.500 195.500 467 219.099 C 466.636 236.287, 466.149 243.120, 465.209 244.251 C 462.332 247.712, 456.387 247.132, 453.282 243.087 C 452.367 241.895, 452.056 230.243, 452.032 196.250 L 452 151 437.500 151 L 423 151 423 262.782 M 38.873 236.684 C 32.822 240.439, 33 238.533, 33.004 299.654 C 33.007 353.904, 33.065 355.595, 35.026 358.810 C 38.738 364.899, 39.560 365, 85.218 364.998 C 130.691 364.997, 130.803 364.983, 135.429 358.677 C 137.465 355.903, 137.500 354.910, 137.500 300.677 C 137.500 240.091, 137.562 240.746, 131.514 237.009 C 128.388 235.077, 126.607 235.001, 84.882 235.027 C 46.548 235.050, 41.194 235.243, 38.873 236.684 M 163.235 238.421 L 159.500 241.842 159.194 262.883 C 158.866 285.469, 159.195 287.363, 163.745 289.093 C 166.868 290.281, 171.565 288.682, 173.038 285.929 C 173.567 284.940, 174 276.452, 174 267.066 L 174 250 211 250 L 248 250 248 299.500 L 248 349 211 349 L 174 349 174 332.082 C 174 322.777, 173.720 314.435, 173.379 313.545 C 172.442 311.103, 167.398 308.862, 164.485 309.593 C 159.398 310.870, 159 312.716, 159.004 334.973 C 159.007 353.292, 159.209 355.831, 160.886 358.580 C 164.824 365.038, 165.281 365.093, 212.395 364.781 C 253.536 364.509, 254.943 364.436, 257.678 362.429 C 259.230 361.290, 261.295 358.815, 262.266 356.929 C 263.901 353.754, 264.012 349.422, 263.766 298.500 C 263.514 246.375, 263.401 243.354, 261.602 240.699 C 257.720 234.972, 257.969 235, 210.535 235 L 166.971 235 163.235 238.421 M 48 299.500 L 48 349 85 349 L 122 349 122 299.500 L 122 250 85 250 L 48 250 48 299.500 M 287.073 256.635 C 284.323 260.130, 284.455 263.546, 287.455 266.545 L 289.909 269 337.500 269 L 385.091 269 387.545 266.545 C 388.895 265.195, 390 262.925, 390 261.500 C 390 260.075, 388.895 257.805, 387.545 256.455 L 385.091 254 337.118 254 L 289.145 254 287.073 256.635 M 287.455 294.455 C 284.305 297.604, 284.246 301.943, 287.314 304.826 C 289.625 306.996, 289.719 307, 337.742 307 L 385.855 307 387.927 304.365 C 390.677 300.870, 390.545 297.454, 387.545 294.455 L 385.091 292 337.500 292 L 289.909 292 287.455 294.455 M 288.763 331.565 C 283.728 334.297, 283.846 341.835, 288.965 344.482 C 291.465 345.775, 298.628 345.998, 337.200 345.985 C 385.744 345.969, 386.054 345.939, 388.898 340.873 C 390.761 337.554, 389.046 332.798, 385.385 331.130 C 383.654 330.341, 369.120 330.012, 337.203 330.040 C 298.730 330.074, 291.067 330.315, 288.763 331.565" stroke="none" fill="black" fill-rule="evenodd"/>
</svg>