<?xml version="1.0" standalone="no"?>
<!DOCTYPE svg PUBLIC "-//W3C//DTD SVG 20010904//EN"
 "http://www.w3.org/TR/2001/REC-SVG-20010904/DTD/svg10.dtd">
<svg version="1.0" xmlns="http://www.w3.org/2000/svg"
 width="512.000000pt" height="512.000000pt" viewBox="0 0 512.000000 512.000000"
 preserveAspectRatio="xMidYMid meet">

<g transform="translate(0.000000,512.000000) scale(0.100000,-0.100000)"
fill="#000000" stroke="none">
<path d="M587 5106 c-59 -22 -107 -64 -133 -120 l-24 -51 0 -1415 0 -1416 -43
-11 c-62 -17 -121 -64 -148 -120 l-24 -48 0 -605 c0 -571 1 -607 19 -640 37
-69 94 -116 161 -130 l30 -6 5 -189 c6 -213 15 -247 85 -301 74 -56 -48 -53
2045 -53 2093 0 1971 -3 2045 53 70 54 79 88 85 301 l5 189 30 6 c67 14 124
61 161 130 18 33 19 69 19 640 l0 605 -24 48 c-27 56 -86 103 -148 120 l-43
11 0 1416 0 1415 -24 51 c-26 56 -74 98 -133 120 -29 10 -119 13 -369 14 -319
0 -331 -1 -352 -20 -30 -28 -30 -82 0 -110 21 -19 34 -20 340 -20 334 0 366
-4 382 -45 3 -9 6 -118 6 -241 l0 -224 -1980 0 -1980 0 0 224 c0 123 3 232 6
241 18 47 -32 45 1507 45 1439 0 1443 0 1465 20 30 28 30 82 0 110 -22 20 -26
20 -1477 20 -1190 -1 -1463 -3 -1494 -14z m3953 -1901 l0 -1105 -1980 0 -1980
0 0 1105 0 1105 1980 0 1980 0 0 -1105z m-2860 -1438 l0 -182 -310 -310 -309
-309 -168 166 c-134 132 -176 168 -208 177 -97 27 -156 9 -245 -76 l-70 -65 0
370 c0 369 0 371 22 392 21 20 32 20 655 20 l633 0 0 -183z m1612 -111 c3
-273 4 -295 22 -315 13 -14 31 -21 57 -21 68 0 69 5 69 337 l0 293 633 0 c623
0 634 0 655 -20 22 -21 22 -22 22 -437 l0 -415 -22 7 c-13 3 -56 9 -95 12 -40
3 -73 7 -73 10 0 2 11 20 24 41 65 100 75 264 22 374 -78 165 -259 261 -429
230 -136 -25 -244 -107 -304 -230 -26 -52 -28 -67 -28 -168 0 -108 1 -113 36
-182 l36 -70 -77 -4 c-99 -6 -170 -42 -217 -112 -43 -62 -53 -103 -53 -209 l0
-88 -62 3 -63 3 -5 191 c-4 141 -9 195 -19 207 -20 25 -83 22 -107 -4 -17 -19
-19 -41 -22 -210 l-3 -189 -730 0 -729 0 0 630 0 630 730 0 729 0 3 -294z
m1024 -61 c231 -69 232 -404 0 -481 -210 -70 -400 154 -300 354 57 114 175
164 300 127z m-2638 -567 l-3 -333 -631 0 c-607 0 -633 1 -653 19 -19 17 -21
30 -21 131 l0 111 109 107 c86 85 114 107 136 107 23 0 61 -32 210 -180 l182
-180 53 0 54 0 276 275 c151 151 278 275 283 275 4 0 6 -150 5 -332z m3012
-93 c48 -25 60 -52 60 -131 0 -118 44 -109 -537 -112 l-495 -3 4 95 c3 84 6
97 28 121 14 15 34 31 45 35 11 5 210 9 443 9 357 1 428 -1 452 -14z m-150
-559 c0 -90 -3 -172 -6 -181 -18 -47 66 -45 -1974 -45 -2040 0 -1956 -2 -1974
45 -3 9 -6 91 -6 181 l0 164 1980 0 1980 0 0 -164z"/>
<path d="M1808 4137 c-196 -67 -338 -259 -338 -457 l0 -39 -263 -3 -264 -3
-40 -27 c-65 -43 -78 -80 -78 -239 0 -158 9 -179 75 -179 64 0 74 22 80 168
l5 127 257 3 257 2 20 -38 c11 -22 36 -60 55 -85 l36 -47 -60 0 c-118 0 -226
-65 -285 -171 l-30 -54 -3 -258 -3 -258 -122 3 -122 3 -5 176 c-4 156 -7 179
-24 198 -26 29 -86 29 -112 0 -17 -19 -19 -38 -19 -208 0 -214 8 -243 78 -289
l41 -27 1600 -3 c1776 -3 1658 -7 1711 62 14 18 29 57 35 86 13 69 13 841 0
909 -13 67 -42 108 -94 132 -39 18 -84 19 -888 19 l-848 0 0 40 c0 151 -88
310 -221 399 -124 83 -292 105 -431 58z m310 -161 c70 -35 128 -95 161 -165
22 -47 26 -70 26 -146 0 -83 -2 -95 -34 -153 -41 -75 -94 -125 -170 -160 -46
-22 -71 -26 -136 -26 -65 0 -90 4 -136 26 -76 35 -129 85 -170 160 -31 58 -34
70 -34 153 0 77 4 98 26 146 42 88 123 159 219 190 14 5 63 7 110 5 69 -2 95
-8 138 -30z m2017 -941 l0 -450 -711 -3 -712 -2 -4 243 -4 244 -32 66 c-58
118 -167 187 -293 187 l-60 0 34 43 c19 23 44 61 56 85 l21 42 853 -2 852 -3
0 -450z m-1675 115 c21 -11 49 -34 62 -52 22 -32 23 -40 26 -275 l3 -243 -586
0 -586 0 3 243 c3 235 4 243 26 275 13 18 40 41 60 52 35 18 62 19 495 20 437
0 460 -1 497 -20z"/>
<path d="M3062 3220 c-30 -28 -30 -82 0 -110 21 -19 33 -20 428 -20 395 0 407
1 428 20 14 14 22 33 22 55 0 22 -8 41 -22 55 -21 19 -33 20 -428 20 -395 0
-407 -1 -428 -20z"/>
<path d="M3062 2930 c-30 -28 -30 -82 0 -110 21 -19 33 -20 428 -20 395 0 407
1 428 20 14 14 22 33 22 55 0 22 -8 41 -22 55 -21 19 -33 20 -428 20 -395 0
-407 -1 -428 -20z"/>
<path d="M949 1762 c-34 -17 -65 -44 -84 -71 -28 -39 -30 -50 -30 -126 0 -76
2 -87 30 -126 39 -56 120 -99 184 -99 67 0 147 43 186 98 27 40 30 51 30 127
0 76 -2 87 -30 126 -40 56 -120 99 -185 99 -33 0 -64 -9 -101 -28z m149 -142
c47 -44 15 -130 -48 -130 -38 0 -70 34 -70 75 0 41 32 75 70 75 14 0 36 -9 48
-20z"/>
<path d="M2374 1689 c-18 -5 -46 -24 -62 -43 -39 -45 -45 -96 -40 -376 4 -239
9 -263 71 -300 59 -36 100 -27 233 49 314 181 339 197 361 230 43 63 22 149
-45 193 -100 65 -431 247 -457 251 -16 3 -44 1 -61 -4z m255 -267 l172 -100
-178 -102 c-98 -57 -181 -105 -185 -107 -5 -2 -8 91 -8 207 0 175 2 211 14
207 7 -3 90 -50 185 -105z"/>
<path d="M3636 4769 c-52 -41 -23 -129 43 -129 44 0 62 10 76 43 32 77 -52
138 -119 86z"/>
<path d="M3942 4783 c-21 -8 -43 -61 -36 -88 21 -84 154 -67 154 20 0 54 -63
90 -118 68z"/>
<path d="M4225 4765 c-14 -13 -25 -36 -25 -50 0 -37 42 -75 83 -75 41 0 77 34
77 74 0 37 -41 76 -80 76 -19 0 -40 -9 -55 -25z"/>
</g>
</svg>
