<?xml version="1.0" standalone="no"?>
<!DOCTYPE svg PUBLIC "-//W3C//DTD SVG 20010904//EN"
 "http://www.w3.org/TR/2001/REC-SVG-20010904/DTD/svg10.dtd">
<svg version="1.0" xmlns="http://www.w3.org/2000/svg"
 width="512.000000pt" height="512.000000pt" viewBox="0 0 512.000000 512.000000"
 preserveAspectRatio="xMidYMid meet">

<g transform="translate(0.000000,512.000000) scale(0.100000,-0.100000)"
fill="#000000" stroke="none">
<path d="M557 4975 c-82 -29 -117 -84 -117 -185 l0 -70 -112 0 c-213 -1 -265
-57 -256 -280 4 -119 17 -153 75 -197 34 -26 44 -28 162 -33 l126 -5 0 -285 0
-285 -147 -5 c-143 -5 -147 -6 -189 -35 -27 -19 -54 -50 -71 -84 l-28 -53 0
-1572 c0 -1560 1 -1571 21 -1616 25 -56 53 -86 104 -113 l40 -22 1820 0 1820
0 40 22 c97 52 125 110 125 258 l0 105 93 0 c107 0 149 16 184 69 20 29 23 47
23 128 0 124 10 128 99 39 123 -122 159 -114 353 82 182 184 189 215 71 342
-86 93 -83 100 45 100 86 0 103 3 126 21 52 41 56 61 56 283 l0 205 -31 35
c-37 43 -79 56 -180 56 -56 0 -78 4 -82 14 -3 8 20 38 55 72 68 67 88 100 88
144 0 50 -21 77 -167 221 -185 183 -211 188 -337 69 -39 -37 -77 -65 -83 -63
-9 3 -13 32 -13 94 0 97 -10 127 -55 169 -24 23 -35 25 -136 28 l-109 4 0 119
0 119 504 0 c332 0 514 4 533 11 38 14 83 57 99 96 11 26 14 156 14 703 0 729
2 708 -56 762 -45 42 -75 48 -224 48 -138 0 -139 0 -159 -26 -26 -33 -27 -65
-2 -95 18 -23 27 -24 153 -29 l133 -5 0 -655 0 -655 -497 -3 -497 -2 -3 233
-3 234 -28 41 c-15 23 -46 54 -69 69 -36 24 -53 28 -130 31 l-88 4 2 351 3
352 383 5 384 5 19 24 c25 30 24 62 -2 95 l-20 26 -397 0 c-392 0 -397 -1
-436 -23 -22 -12 -49 -38 -60 -57 -20 -33 -21 -55 -26 -405 l-5 -370 -527 -3
-528 -2 0 157 c0 138 -2 162 -21 200 -29 60 -70 86 -141 91 l-58 4 -11 42 c-6
22 -35 128 -65 234 -30 106 -54 197 -54 202 0 6 38 10 90 10 131 0 176 25 194
107 11 48 -13 89 -115 195 -73 75 -103 99 -134 107 -25 7 -200 11 -473 11
-361 0 -438 -2 -461 -15 -46 -23 -54 -66 -20 -109 l20 -26 448 0 447 0 30 -32
c16 -18 40 -45 53 -60 l24 -28 -802 0 -802 0 3 58 3 57 157 3 c156 2 157 3
177 29 34 42 26 85 -20 108 -38 20 -297 20 -352 0z m-117 -510 l0 -105 -104 0
c-121 0 -116 -4 -116 105 0 109 -5 105 116 105 l104 0 0 -105z m410 0 l0 -105
-130 0 -130 0 0 105 0 105 130 0 130 0 0 -105z m1030 78 c-5 -16 -32 -111 -60
-213 -76 -276 -64 -250 -117 -250 -56 0 -110 -29 -143 -77 -24 -35 -25 -45
-28 -205 l-4 -168 -264 0 -264 0 0 470 0 470 444 0 445 0 -9 -27z m144 -313
c20 -68 36 -130 36 -137 0 -9 -21 -13 -75 -13 -41 0 -75 3 -75 6 0 12 73 274
76 272 1 -2 18 -59 38 -128z m-1176 -127 l3 -103 -131 0 -130 0 0 105 0 106
128 -3 127 -3 3 -102z m1437 -473 l0 -295 -300 0 -300 0 -3 285 c-1 157 0 290
3 298 3 10 68 12 302 10 l298 -3 0 -295z m-1440 110 l0 -105 -127 -3 -128 -3
0 111 0 111 128 -3 127 -3 0 -105z m685 -335 c0 -81 16 -134 53 -173 48 -51
53 -52 403 -52 l327 0 43 25 c61 36 84 89 84 193 l0 82 670 0 c657 0 670 0
690 -20 19 -19 20 -33 20 -230 l0 -210 -1835 0 -1835 0 0 207 c0 198 1 208 22
230 l21 23 669 0 668 0 0 -75z m2290 -1804 c0 -1234 -1 -1269 -19 -1292 l-19
-24 -1774 -3 c-975 -1 -1783 0 -1796 3 -12 3 -31 14 -42 25 -20 20 -20 39 -20
1290 l0 1270 1835 0 1835 0 0 -1269z m300 787 c0 -116 16 -148 93 -183 98 -46
136 -35 242 67 l50 48 105 -105 105 -105 -62 -62 c-90 -92 -100 -129 -59 -222
35 -80 66 -96 184 -96 l92 0 0 -149 0 -149 -94 -4 c-103 -4 -133 -17 -167 -71
-60 -97 -51 -153 38 -248 l67 -70 -105 -105 -104 -104 -60 59 c-33 32 -71 64
-84 71 -60 31 -177 -6 -218 -69 -20 -29 -23 -47 -23 -127 l0 -94 -75 0 -75 0
0 238 0 239 67 12 c142 26 256 112 316 238 30 64 32 75 32 178 0 103 -2 114
-31 176 -37 77 -86 135 -152 179 -50 33 -157 70 -203 70 l-29 0 0 240 0 240
75 0 75 0 0 -92z m-60 -553 c58 -20 115 -68 148 -123 24 -41 27 -57 27 -132 0
-64 -5 -95 -19 -124 -39 -78 -117 -134 -208 -151 l-38 -7 0 276 0 276 24 0
c13 0 42 -7 66 -15z"/>
<path d="M2994 3319 c-22 -11 -44 -48 -44 -73 0 -7 9 -25 21 -40 42 -53 139
-21 139 46 0 54 -66 92 -116 67z"/>
<path d="M3273 3320 c-26 -11 -43 -40 -43 -74 0 -64 98 -92 139 -40 12 15 21
33 21 40 0 26 -23 62 -47 73 -28 13 -40 13 -70 1z"/>
<path d="M3535 3308 c-56 -49 -24 -128 51 -128 44 0 74 30 74 73 0 65 -75 97
-125 55z"/>
<path d="M369 2693 c-59 -36 -59 -39 -59 -420 0 -327 1 -350 20 -380 10 -17
29 -38 42 -45 19 -11 316 -14 1578 -16 855 -2 1575 0 1599 3 32 5 54 16 78 40
l33 33 0 356 c0 300 -2 362 -15 386 -33 64 83 60 -1662 60 -1450 -1 -1590 -2
-1614 -17z m3141 -423 l0 -290 -1525 0 -1525 0 0 290 0 290 1525 0 1525 0 0
-290z"/>
<path d="M390 1657 c-19 -7 -44 -27 -57 -46 l-23 -34 0 -527 c0 -520 0 -528
21 -554 44 -56 44 -56 471 -56 440 0 446 1 480 70 16 32 18 79 18 543 0 577 2
564 -74 598 -38 17 -72 19 -421 18 -268 0 -390 -4 -415 -12z m760 -602 l0
-465 -345 0 -345 0 0 465 0 465 345 0 345 0 0 -465z"/>
<path d="M1585 1663 c-34 -9 -63 -33 -79 -68 -12 -25 -16 -67 -16 -183 0 -136
2 -152 21 -176 26 -33 79 -36 109 -6 18 18 20 33 20 155 l0 135 345 0 345 0 0
-465 0 -465 -345 0 -345 0 0 185 c0 172 -1 186 -20 205 -30 30 -83 27 -109 -6
-20 -25 -21 -39 -21 -228 0 -228 7 -257 70 -288 32 -16 74 -18 428 -18 434 0
434 0 472 63 19 31 20 54 20 553 l0 521 -23 34 c-38 56 -53 58 -472 57 -209 0
-389 -3 -400 -5z"/>
<path d="M2704 1467 c-34 -30 -36 -83 -3 -109 19 -17 57 -18 470 -18 436 0
450 1 469 20 30 30 27 83 -6 109 -26 21 -37 21 -465 21 l-438 0 -27 -23z"/>
<path d="M2706 1108 c-36 -33 -39 -75 -6 -108 19 -19 33 -20 470 -20 437 0
451 1 470 20 30 30 27 83 -6 109 -26 21 -37 21 -465 21 l-438 0 -25 -22z"/>
<path d="M2708 756 c-39 -30 -40 -92 0 -122 13 -11 111 -13 463 -14 434 0 446
0 467 20 14 14 22 33 22 55 0 22 -8 41 -22 55 -21 20 -33 20 -467 20 -350 -1
-450 -3 -463 -14z"/>
<path d="M3865 4125 c-23 -22 -25 -32 -25 -110 0 -78 2 -88 25 -110 13 -14 36
-25 50 -25 38 0 75 42 75 85 l0 35 120 0 120 0 0 -320 0 -320 -33 0 c-69 0
-101 -77 -52 -126 25 -25 27 -25 170 -22 159 3 169 7 181 65 9 43 -30 83 -81
83 l-35 0 0 320 0 320 125 0 125 0 0 -39 c0 -68 70 -104 121 -62 22 18 24 26
24 116 0 147 40 135 -467 135 l-419 0 -24 -25z"/>
</g>
</svg>
