<svg xmlns="http://www.w3.org/2000/svg" width="512" height="512" viewBox="0 0 512 512" version="1.1">
	<path d="M 25.500 1.866 C 20.356 4.208, 14.428 10.798, 13.072 15.679 C 11.648 20.806, 11.662 72.243, 13.089 77.381 C 14.522 82.542, 22.226 90.177, 27.616 91.778 C 33.611 93.558, 478.389 93.558, 484.384 91.778 C 489.796 90.170, 497.170 82.796, 498.778 77.384 C 500.343 72.114, 500.467 21.221, 498.928 15.679 C 497.572 10.798, 491.644 4.208, 486.500 1.866 C 482.668 0.120, 472.982 0.044, 256 0.044 C 39.018 0.044, 29.332 0.120, 25.500 1.866 M 29.455 17.455 L 27 19.909 27.014 45.205 C 27.021 59.117, 27.303 71.531, 27.641 72.790 C 29.121 78.317, 15.239 78, 256 78 C 501.398 78, 483.261 78.496, 484.513 71.748 C 484.844 69.961, 484.977 57.322, 484.808 43.660 C 484.501 18.932, 484.489 18.812, 482.139 16.910 C 479.831 15.043, 474.776 15, 255.844 15 L 31.909 15 29.455 17.455 M 52.229 39.669 C 51.530 39.951, 50.257 41.536, 49.400 43.193 C 48.116 45.676, 48.056 46.721, 49.058 49.141 C 49.727 50.755, 51.083 52.509, 52.071 53.038 C 54.042 54.093, 76.855 54.377, 79.455 53.379 C 80.346 53.037, 81.768 51.416, 82.616 49.776 C 83.884 47.323, 83.942 46.274, 82.942 43.859 C 82.273 42.245, 80.917 40.491, 79.929 39.962 C 78.101 38.984, 54.551 38.735, 52.229 39.669 M 394.455 41.455 C 393.105 42.805, 392 45.075, 392 46.500 C 392 50.007, 396.164 54, 399.820 54 C 404.178 54, 408 50.544, 408 46.602 C 408 39.690, 399.463 36.446, 394.455 41.455 M 422.174 41.314 C 415.280 48.653, 426.417 58.674, 433.545 51.545 C 434.895 50.195, 436 47.925, 436 46.500 C 436 40.044, 426.659 36.540, 422.174 41.314 M 450.337 40.477 C 447.428 42.514, 446.643 46.410, 448.442 49.887 C 450.036 52.971, 451.802 54, 455.500 54 C 459.225 54, 460.966 52.966, 462.616 49.776 C 465.374 44.443, 461.672 39, 455.288 39 C 453.724 39, 451.496 39.665, 450.337 40.477 M 25.429 110.381 C 19.617 113.087, 14.796 118.400, 13.141 123.922 C 11.579 129.139, 11.529 308.763, 13.089 314.381 C 14.522 319.542, 22.226 327.177, 27.616 328.778 C 30.713 329.697, 52.062 330, 113.866 330 L 196 330 196 367.944 L 196 405.888 198.342 408.611 C 201.379 412.142, 206.487 412.352, 209.156 409.056 C 210.876 406.931, 211 404.207, 211 368.389 L 211 330 254.250 329.978 C 295.621 329.957, 297.696 329.867, 302 327.916 C 309.817 324.372, 314.246 318.568, 315.601 310.092 L 316.256 306 398.555 306 L 480.855 306 482.943 308.655 C 485.030 311.308, 485.031 311.348, 484.765 402.243 L 484.500 493.177 482.139 495.089 C 479.842 496.949, 476.268 497, 348.936 497 C 253.271 497, 217.423 496.694, 215.597 495.862 C 214.223 495.236, 212.627 493.369, 212.050 491.713 C 211.420 489.906, 211 478.205, 211 462.462 C 211 438.451, 210.843 436.028, 209.156 433.944 C 206.464 430.620, 201.379 430.858, 198.287 434.453 L 195.890 437.239 196.195 466.370 C 196.487 494.247, 196.596 495.679, 198.721 499.653 C 201.417 504.695, 207.263 509.697, 212 511.015 C 214.192 511.625, 265.398 511.983, 349 511.972 C 475.995 511.957, 482.695 511.867, 486.500 510.134 C 491.644 507.792, 497.572 501.202, 498.928 496.321 C 499.641 493.753, 499.983 462.340, 499.972 400.500 C 499.956 310.052, 499.922 308.424, 497.916 304 C 495.378 298.402, 492.640 295.419, 487.500 292.653 C 483.509 290.505, 483.320 290.499, 399.772 290.228 L 316.045 289.956 315.772 207.228 C 315.514 128.675, 315.406 124.323, 313.633 121 C 311.010 116.083, 308.135 113.147, 303.500 110.653 C 299.509 108.505, 299.307 108.499, 216.332 108.228 L 133.163 107.956 130.415 110.320 C 126.858 113.379, 126.637 118.478, 129.944 121.156 C 132.116 122.914, 136.002 123, 213.555 123 L 294.888 123 297.694 125.413 L 300.500 127.826 300.775 179.163 L 301.049 230.500 267.275 196.796 C 244.653 174.222, 232.272 162.582, 229.782 161.546 C 225.017 159.565, 215.988 159.563, 211.218 161.543 C 208.677 162.598, 193.193 177.375, 162.292 208.236 L 117.084 253.387 98.647 235.252 C 81.446 218.332, 79.826 217.005, 74.479 215.451 C 68.200 213.626, 62.858 214.007, 57.645 216.654 C 55.915 217.532, 48.313 224.361, 40.750 231.829 L 27 245.408 27 187.751 C 27 147.625, 27.338 129.353, 28.110 127.657 C 30.128 123.230, 32.115 123, 68.436 123 C 100.321 123, 102.941 122.868, 105.056 121.156 C 108.352 118.487, 108.142 113.379, 104.611 110.342 L 101.888 108 66.194 108.010 C 30.788 108.019, 30.459 108.039, 25.429 110.381 M 350.684 109.449 C 344.985 111.481, 341.389 114.810, 337.977 121.210 C 336.157 124.625, 336 126.934, 336 150.238 C 336 179.194, 336.189 180, 342.984 180 C 345.975 180, 347.326 179.401, 348.927 177.365 C 350.889 174.871, 351 173.488, 351 151.476 C 351 130.072, 351.152 128.034, 352.911 125.861 L 354.823 123.500 416.149 123.227 C 458.734 123.038, 478.280 123.288, 480.108 124.045 C 481.556 124.645, 483.249 126.251, 483.870 127.615 C 484.670 129.371, 485 147.841, 485 190.912 C 485 250.926, 484.973 251.765, 482.927 254.365 L 480.855 257 417.927 257 C 356.333 257, 354.958 256.958, 353 255 C 351.113 253.113, 351 251.667, 351 229.423 L 351 205.846 348.077 202.923 C 344.621 199.467, 342.222 199.251, 338.635 202.073 L 336 204.145 336 229.605 C 336 250.359, 336.287 255.751, 337.553 258.782 C 339.523 263.498, 343.395 267.587, 348.500 270.342 C 352.456 272.476, 353.188 272.504, 414.500 272.819 C 457.788 273.042, 478.062 272.799, 481.676 272.014 C 488.919 270.441, 494.616 266.022, 497.564 259.690 L 499.980 254.500 499.990 191.116 C 499.997 146.490, 499.662 126.605, 498.859 123.922 C 497.204 118.400, 492.383 113.087, 486.571 110.381 L 481.500 108.020 418 108.054 C 367.041 108.081, 353.746 108.357, 350.684 109.449 M 372.861 144.912 C 370.635 146.714, 370.500 147.460, 370.500 158 C 370.500 168.540, 370.635 169.286, 372.861 171.088 C 375.601 173.307, 379.727 173.522, 382.288 171.580 C 384.263 170.082, 386 165.017, 386 160.757 L 386 158 398 158 L 410 158 410 190.500 L 410 223 405 223 C 398.852 223, 396 225.354, 396 230.427 C 396 232.939, 396.704 234.409, 398.635 235.927 C 401.065 237.839, 402.587 238, 418.180 238 C 434.801 238, 435.133 237.958, 437.545 235.545 C 440.532 232.559, 440.679 229.132, 437.968 225.686 C 436.325 223.598, 434.935 223.045, 430.718 222.801 L 425.500 222.500 425.236 190.250 L 424.972 158 437.486 158 L 450 158 450 163.045 C 450 167.069, 450.497 168.588, 452.455 170.545 C 455.604 173.695, 459.943 173.754, 462.826 170.686 C 464.773 168.612, 465 167.276, 465 157.860 C 465 141.637, 469.330 143, 417.796 143 C 377.367 143, 375.103 143.096, 372.861 144.912 M 108.173 148.905 C 97.789 152.491, 90.614 162.536, 90.639 173.453 C 90.673 188.711, 101.883 200, 117 200 C 132.117 200, 143.327 188.711, 143.361 173.453 C 143.387 162.256, 135.589 151.737, 124.913 148.567 C 118.160 146.561, 114.760 146.630, 108.173 148.905 M 112.378 163.437 C 105.397 166.475, 103.669 175.360, 108.918 181.234 C 111.500 184.124, 112.431 184.500, 117 184.500 C 121.569 184.500, 122.500 184.124, 125.082 181.234 C 130.413 175.268, 128.582 166.395, 121.401 163.394 C 117.340 161.697, 116.365 161.702, 112.378 163.437 M 172.996 219.601 C 148.523 244.132, 126.745 265.507, 124.600 267.101 C 120.438 270.195, 115.583 270.869, 111.684 268.894 C 110.483 268.285, 100.918 259.257, 90.429 248.832 C 73.754 232.258, 70.947 229.865, 68.093 229.784 C 65.147 229.700, 62.987 231.530, 45.914 248.586 L 27 267.480 27.014 287.490 C 27.021 298.496, 27.303 308.531, 27.641 309.790 C 29.097 315.225, 23.204 315, 163.903 315 C 258.941 315, 294.578 314.694, 296.403 313.862 C 297.777 313.236, 299.373 311.369, 299.950 309.713 C 300.585 307.892, 301 295.796, 301 279.103 L 301 251.505 262.711 213.253 C 227.067 177.643, 224.182 175, 220.957 175 C 217.720 175, 214.557 177.942, 172.996 219.601 M 319.256 349.066 C 314.842 350.410, 309.329 356.153, 308.058 360.731 C 306.395 366.718, 306.734 437.509, 308.449 442.316 C 310.995 449.455, 317.557 454, 325.318 454 C 329.130 454, 332.768 452.249, 352.608 440.870 C 394.606 416.783, 398.696 414.229, 400.825 410.766 C 405.312 403.465, 404.250 394.449, 398.232 388.755 C 396.730 387.334, 380.978 377.797, 363.230 367.563 C 329.429 348.074, 326.525 346.852, 319.256 349.066 M 323.238 401.048 C 323.409 425.350, 323.856 438.453, 324.523 438.675 C 325.086 438.862, 339.486 430.950, 356.523 421.091 C 377.437 408.990, 387.593 402.571, 387.786 401.333 C 388.011 399.885, 381.740 395.843, 357.933 382.092 C 341.358 372.517, 326.711 364.476, 325.386 364.223 L 322.975 363.762 323.238 401.048 M 31.455 372.455 C 28.453 375.456, 28.323 378.870, 31.078 382.372 L 33.156 385.014 99.720 384.757 L 166.284 384.500 168.272 381.837 C 170.572 378.756, 170.090 375.090, 166.975 371.975 C 165.049 370.049, 163.385 370, 99.455 370 L 33.909 370 31.455 372.455 M 31.455 412.455 C 28.453 415.456, 28.323 418.870, 31.078 422.372 L 33.156 425.014 99.720 424.757 L 166.284 424.500 168.272 421.837 C 170.572 418.756, 170.090 415.090, 166.975 411.975 C 165.049 410.049, 163.385 410, 99.455 410 L 33.909 410 31.455 412.455 M 31.455 452.455 C 28.453 455.456, 28.323 458.870, 31.078 462.372 L 33.156 465.014 99.720 464.757 L 166.284 464.500 168.272 461.837 C 170.572 458.756, 170.090 455.090, 166.975 451.975 C 165.049 450.049, 163.385 450, 99.455 450 L 33.909 450 31.455 452.455" stroke="none" fill="black" fill-rule="evenodd"/>
</svg>