<svg xmlns="http://www.w3.org/2000/svg" width="512" height="512" viewBox="0 0 512 512" version="1.1">
	<path d="M 23.500 30.399 C 21.300 31.095, 18.136 32.375, 16.469 33.245 C 11.357 35.910, 4.463 44.147, 2.134 50.372 L -0.025 56.143 0.237 206.322 L 0.500 356.500 3.166 361.500 C 6.618 367.975, 13.209 374.311, 19.500 377.202 L 24.500 379.500 106.250 379.773 L 188 380.045 188 402.956 L 188 425.867 164.750 426.184 C 142.662 426.484, 141.283 426.616, 137.151 428.821 C 130.135 432.565, 124.532 438.428, 121.448 445.253 C 119.047 450.564, 118.615 452.848, 118.562 460.500 C 118.487 471.321, 120.308 475.852, 126.333 479.839 L 130.353 482.500 221.927 482.774 C 289.838 482.977, 314.064 482.749, 315.684 481.890 C 320.119 479.539, 320.804 471.925, 316.812 469.347 C 316.090 468.881, 274.775 468.275, 225 468 L 134.500 467.500 134.500 459.500 C 134.500 452.656, 134.847 451.014, 136.901 448.133 C 138.222 446.282, 141.147 443.929, 143.401 442.905 C 147.317 441.127, 152.354 441.043, 256.093 441.022 L 364.685 441 369.093 443.325 C 375.614 446.765, 378.079 451.651, 377.756 460.500 L 377.500 467.500 360.500 468 C 351.150 468.275, 342.910 468.881, 342.188 469.347 C 339.871 470.844, 338.806 475.118, 340.021 478.050 C 341.958 482.728, 344.086 483.157, 363.633 482.815 C 381.224 482.508, 381.750 482.436, 385.671 479.839 C 391.693 475.850, 393.513 471.319, 393.438 460.500 C 393.385 452.848, 392.953 450.564, 390.552 445.253 C 387.468 438.428, 381.865 432.565, 374.849 428.821 C 370.717 426.616, 369.338 426.484, 347.250 426.184 L 324 425.867 324 402.956 L 324 380.045 405.750 379.773 L 487.500 379.500 492.702 377.148 C 499.371 374.132, 507.082 366.024, 509.488 359.497 C 510.502 356.749, 511.706 354.072, 512.165 353.550 C 513.141 352.440, 513.318 53.348, 512.343 54.324 C 511.982 54.685, 510.650 52.432, 509.384 49.316 C 506.531 42.296, 499.446 34.908, 492.592 31.805 L 487.500 29.500 305 29.229 C 168.471 29.026, 121.950 29.248, 120.316 30.112 C 115.504 32.657, 115.243 40.454, 119.886 42.939 C 121.262 43.675, 176.929 44.013, 301.684 44.044 C 492.845 44.091, 485.884 43.921, 491.207 48.655 C 492.349 49.670, 494.109 52.300, 495.119 54.500 C 496.875 58.323, 496.956 64.942, 496.956 204.500 C 496.956 344.058, 496.875 350.677, 495.119 354.500 C 494.109 356.700, 492.349 359.330, 491.207 360.345 C 485.850 365.109, 496.031 364.911, 255.500 364.934 C 38.286 364.955, 29.344 364.885, 25.500 363.119 C 20.742 360.934, 18.610 358.704, 16.538 353.746 C 15.177 350.489, 15.003 333.244, 15.022 204.282 C 15.043 64.962, 15.125 58.323, 16.881 54.500 C 21.399 44.661, 23.780 44.097, 61.027 44.044 C 94.118 43.996, 95.069 43.848, 96.410 38.503 C 97.093 35.782, 95.671 32.266, 93.087 30.282 C 90.796 28.523, 29.102 28.627, 23.500 30.399 M 0.487 204.500 C 0.487 287, 0.605 320.602, 0.750 279.172 C 0.894 237.741, 0.894 170.241, 0.750 129.172 C 0.605 88.102, 0.487 122, 0.487 204.500 M 41.299 65.960 C 34.574 70.060, 35 61.438, 35 193.500 C 35 325.562, 34.574 316.940, 41.299 321.040 C 44.447 322.960, 47.992 322.993, 256 322.993 C 464.008 322.993, 467.553 322.960, 470.701 321.040 C 477.426 316.940, 477 325.562, 477 193.500 C 477 61.438, 477.426 70.060, 470.701 65.960 C 467.553 64.040, 464.008 64.007, 256 64.007 C 47.992 64.007, 44.447 64.040, 41.299 65.960 M 50 92 L 50 105 62.500 105 L 75 105 75 92 L 75 79 62.500 79 L 50 79 50 92 M 90 92 L 90 105 102.500 105 L 115 105 115 92 L 115 79 102.500 79 L 90 79 90 92 M 130 193.500 L 130 308 296 308 L 462 308 462 193.500 L 462 79 296 79 L 130 79 130 193.500 M 193.333 97.085 C 189.031 98.347, 185.252 103.123, 184.495 108.255 C 184.150 110.590, 184.010 122.501, 184.184 134.724 C 184.487 156.058, 184.588 157.036, 186.694 159.141 C 189.569 162.013, 194.431 162.013, 197.306 159.141 C 199.415 157.034, 199.512 156.075, 199.803 134.474 L 200.106 112 268.553 112 L 337 112 337 193.500 L 337 275 268.530 275 L 200.060 275 199.780 230.527 C 199.501 186.253, 199.490 186.044, 197.306 183.860 C 194.430 180.986, 189.569 180.986, 186.694 183.861 L 184.500 186.056 184.500 233.955 C 184.500 280.827, 184.544 281.915, 186.571 284.677 C 187.710 286.230, 190.185 288.287, 192.071 289.248 C 195.243 290.866, 200.975 290.997, 268.500 290.997 C 336.025 290.997, 341.757 290.866, 344.929 289.248 C 346.815 288.287, 349.290 286.230, 350.429 284.677 C 352.487 281.871, 352.500 281.287, 352.500 193.633 C 352.500 111.032, 352.388 105.241, 350.736 102.720 C 346.424 96.139, 351.207 96.518, 270.045 96.327 C 227.100 96.227, 195.182 96.542, 193.333 97.085 M 400.229 108.669 C 399.530 108.951, 398.257 110.536, 397.400 112.193 C 396.116 114.676, 396.056 115.721, 397.058 118.141 C 398.534 121.703, 400.748 123, 405.352 123 C 410.260 123, 411.852 122.186, 413.616 118.776 C 414.884 116.323, 414.942 115.274, 413.942 112.859 C 413.273 111.245, 411.917 109.491, 410.929 108.962 C 409.059 107.961, 402.438 107.780, 400.229 108.669 M 430.229 108.669 C 429.530 108.951, 428.257 110.536, 427.400 112.193 C 426.116 114.676, 426.056 115.721, 427.058 118.141 C 428.534 121.703, 430.748 123, 435.352 123 C 440.260 123, 441.852 122.186, 443.616 118.776 C 444.884 116.323, 444.942 115.274, 443.942 112.859 C 443.273 111.245, 441.917 109.491, 440.929 108.962 C 439.059 107.961, 432.438 107.780, 430.229 108.669 M 50 133 L 50 146 62.500 146 L 75 146 75 133 L 75 120 62.500 120 L 50 120 50 133 M 90 133 L 90 146 102.500 146 L 115 146 115 133 L 115 120 102.500 120 L 90 120 90 133 M 400.229 136.669 C 399.530 136.951, 398.257 138.536, 397.400 140.193 C 396.116 142.676, 396.056 143.721, 397.058 146.141 C 398.534 149.703, 400.748 151, 405.352 151 C 410.260 151, 411.852 150.186, 413.616 146.776 C 414.884 144.323, 414.942 143.274, 413.942 140.859 C 413.273 139.245, 411.917 137.491, 410.929 136.962 C 409.059 135.961, 402.438 135.780, 400.229 136.669 M 430.229 136.669 C 429.530 136.951, 428.257 138.536, 427.400 140.193 C 426.116 142.676, 426.056 143.721, 427.058 146.141 C 428.534 149.703, 430.748 151, 435.352 151 C 440.260 151, 441.852 150.186, 443.616 146.776 C 444.884 144.323, 444.942 143.274, 443.942 140.859 C 443.273 139.245, 441.917 137.491, 440.929 136.962 C 439.059 135.961, 432.438 135.780, 430.229 136.669 M 227.912 149.280 C 222.303 153.060, 222.031 154.380, 222.015 177.846 C 221.995 206.967, 222.141 207.193, 241.500 208 L 253.500 208.500 254 220.500 C 254.816 240.091, 255.103 240.266, 285.733 239.822 L 307.966 239.500 311.233 236.233 L 314.500 232.966 314.804 210.998 C 315.230 180.189, 315.003 179.813, 295.500 179 L 283.500 178.500 283 166.500 C 282.198 147.247, 281.808 147, 252.247 147 C 232.094 147, 231.167 147.087, 227.912 149.280 M 50 194.500 L 50 228 82.500 228 L 115 228 115 194.500 L 115 161 82.500 161 L 50 161 50 194.500 M 237 177.500 L 237 193 245.500 193 C 253.944 193, 254 192.983, 254 190.450 C 254 184.508, 259.508 179, 265.450 179 C 267.983 179, 268 178.944, 268 170.500 L 268 162 252.500 162 L 237 162 237 177.500 M 400.229 164.669 C 399.530 164.951, 398.257 166.536, 397.400 168.193 C 396.116 170.676, 396.056 171.721, 397.058 174.141 C 398.534 177.703, 400.748 179, 405.352 179 C 410.260 179, 411.852 178.186, 413.616 174.776 C 414.884 172.323, 414.942 171.274, 413.942 168.859 C 413.273 167.245, 411.917 165.491, 410.929 164.962 C 409.059 163.961, 402.438 163.780, 400.229 164.669 M 430.229 164.669 C 429.530 164.951, 428.257 166.536, 427.400 168.193 C 426.116 170.676, 426.056 171.721, 427.058 174.141 C 428.534 177.703, 430.748 179, 435.352 179 C 440.260 179, 441.852 178.186, 443.616 174.776 C 444.884 172.323, 444.942 171.274, 443.942 168.859 C 443.273 167.245, 441.917 165.491, 440.929 164.962 C 439.059 163.961, 432.438 163.780, 430.229 164.669 M 269 209.500 L 269 225 284.500 225 L 300 225 300 209.500 L 300 194 284.500 194 L 269 194 269 209.500 M 400.229 199.669 C 399.530 199.951, 398.257 201.536, 397.400 203.193 C 396.116 205.676, 396.056 206.721, 397.058 209.141 C 397.727 210.755, 399.083 212.509, 400.071 213.038 C 402.031 214.087, 437.824 214.389, 440.455 213.379 C 441.346 213.037, 442.768 211.416, 443.616 209.776 C 444.884 207.323, 444.942 206.274, 443.942 203.859 C 443.273 202.245, 441.917 200.491, 440.929 199.962 C 439.110 198.988, 402.574 198.726, 400.229 199.669 M 400.229 235.669 C 399.530 235.951, 398.257 237.536, 397.400 239.193 C 396.116 241.676, 396.056 242.721, 397.058 245.141 C 397.727 246.755, 399.083 248.509, 400.071 249.038 C 402.031 250.087, 437.824 250.389, 440.455 249.379 C 441.346 249.037, 442.768 247.416, 443.616 245.776 C 444.884 243.323, 444.942 242.274, 443.942 239.859 C 443.273 238.245, 441.917 236.491, 440.929 235.962 C 439.110 234.988, 402.574 234.726, 400.229 235.669 M 50 269.743 L 50 296.486 76.500 270 C 91.075 255.433, 103 243.398, 103 243.257 C 103 243.116, 91.075 243, 76.500 243 L 50 243 50 269.743 M 87.500 281 L 60.514 308 87.757 308 L 115 308 115 281 C 115 266.150, 114.884 254, 114.743 254 C 114.602 254, 102.342 266.150, 87.500 281 M 400.229 264.669 C 399.530 264.951, 398.257 266.536, 397.400 268.193 C 396.116 270.676, 396.056 271.721, 397.058 274.141 C 397.727 275.755, 399.083 277.509, 400.071 278.038 C 402.031 279.087, 437.824 279.389, 440.455 278.379 C 441.346 278.037, 442.768 276.416, 443.616 274.776 C 444.884 272.323, 444.942 271.274, 443.942 268.859 C 443.273 267.245, 441.917 265.491, 440.929 264.962 C 439.110 263.988, 402.574 263.726, 400.229 264.669 M 204 403 L 204 426 256 426 L 308 426 308 403 L 308 380 256 380 L 204 380 204 403" stroke="none" fill="black" fill-rule="evenodd"/>
</svg>